<svg xmlns="http://www.w3.org/2000/svg" xmlns:xlink="http://www.w3.org/1999/xlink" version="1.1" x="0px" y="0px" viewBox="0 0 96 120" style="enable-background:new 0 0 96 96;" xml:space="preserve"><path style="fill: #FFF" d="M60,57L60,57c-1.1,0-2-0.9-2-2V41c0-1.1,0.9-2,2-2h0c1.1,0,2,0.9,2,2v14C62,56.1,61.1,57,60,57z"/><path style="fill: #FFF" d="M78,55L78,55c-1.1,0-2-0.9-2-2V43c0-1.1,0.9-2,2-2l0,0c1.1,0,2,0.9,2,2v10C80,54.1,79.1,55,78,55z"/><path style="fill: #FFF" d="M66,52L66,52c-1.1,0-2-0.9-2-2v-4c0-1.1,0.9-2,2-2l0,0c1.1,0,2,0.9,2,2v4C68,51.1,67.1,52,66,52z"/><path style="fill: #FFF" d="M72,59L72,59c-1.1,0-2-0.9-2-2V39c0-1.1,0.9-2,2-2l0,0c1.1,0,2,0.9,2,2v18C74,58.1,73.1,59,72,59z"/><path style="fill: #FFF" d="M54,63L54,63c-1.1,0-2-0.9-2-2V35c0-1.1,0.9-2,2-2h0c1.1,0,2,0.9,2,2v26C56,62.1,55.1,63,54,63z"/><path style="fill: #FFF" d="M18,54L18,54c-1.1,0-2-0.9-2-2v-8c0-1.1,0.9-2,2-2h0c1.1,0,2,0.9,2,2v8C20,53.1,19.1,54,18,54z"/><path style="fill: #FFF" d="M12,51L12,51c-1.1,0-2-0.9-2-2v-2c0-1.1,0.9-2,2-2h0c1.1,0,2,0.9,2,2v2C14,50.1,13.1,51,12,51z"/><path style="fill: #FFF" d="M24,59L24,59c-1.1,0-2-0.9-2-2V39c0-1.1,0.9-2,2-2h0c1.1,0,2,0.9,2,2v18C26,58.1,25.1,59,24,59z"/><path style="fill: #FFF" d="M30,52L30,52c-1.1,0-2-0.9-2-2v-4c0-1.1,0.9-2,2-2h0c1.1,0,2,0.9,2,2v4C32,51.1,31.1,52,30,52z"/><path style="fill: #FFF" d="M36,57L36,57c-1.1,0-2-0.9-2-2V41c0-1.1,0.9-2,2-2h0c1.1,0,2,0.9,2,2v14C38,56.1,37.1,57,36,57z"/><path style="fill: #FFF" d="M42,63L42,63c-1.1,0-2-0.9-2-2V35c0-1.1,0.9-2,2-2h0c1.1,0,2,0.9,2,2v26C44,62.1,43.1,63,42,63z"/><path style="fill: #FFF" d="M48,70L48,70c-1.1,0-2-0.9-2-2V28c0-1.1,0.9-2,2-2h0c1.1,0,2,0.9,2,2v40C50,69.1,49.1,70,48,70z"/><path style="fill: #FFF" d="M84,51L84,51c-1.1,0-2-0.9-2-2v-2c0-1.1,0.9-2,2-2l0,0c1.1,0,2,0.9,2,2v2C86,50.1,85.1,51,84,51z"/></svg>